# xmcd CD database file
#
# Track frame offsets:
#	150
#	22987
#	39355
#	58312
#	73880
#	92397
#	108347
#	128497
#	151422
#	169447
#	189272
#	207945
#	223705
#
# Disc length: 3233 seconds
#
# Revision: 0
# Processed by: cddbd v1.5.2PL0 Copyright (c) Steve Scherf et al.
# Submitted via: CdAid (MTCDDB.DLL V2003.12.21)
#
DISCID=b10c9f0d
DTITLE=Andressa - Andressa
DYEAR=2004
DGENRE=Country
TTITLE0=Uma Noite e Meia
TTITLE1=Olhar 43
TTITLE2=Tempo Perdido
TTITLE3=Corações Psicodélicos
TTITLE4=Meu Erro
TTITLE5=Um Certo Alguém
TTITLE6=O Astronauta de Mármore
TTITLE7=Ficar com Você
TTITLE8=Somebody
TTITLE9=Pintura Íntima
TTITLE10=Ficar com Você (Dance)
TTITLE11=O Astronauta de Mármore (Bonus Track)
TTITLE12=Amores Estranhos (Bonus Track)
EXTD=ID3G:   2 YEAR: 2004
EXTT0=
EXTT1=
EXTT2=
EXTT3=
EXTT4=
EXTT5=
EXTT6=
EXTT7=
EXTT8=
EXTT9=
EXTT10=
EXTT11=
EXTT12=
PLAYORDER=
